<svg xmlns="http://www.w3.org/2000/svg" viewBox="0 0 250 350" width="250" height="350">
  <defs>
    <linearGradient id="bg" x1="0" y1="0" x2="0" y2="1">
      <stop offset="0%" stop-color="#334155"/>
      <stop offset="55%" stop-color="#1E293B"/>
      <stop offset="100%" stop-color="#0F172A"/>
    </linearGradient>
    <radialGradient id="moon" cx="0.5" cy="0.5" r="0.5">
      <stop offset="0%" stop-color="#E2E8F0"/>
      <stop offset="70%" stop-color="#CBD5E1"/>
      <stop offset="100%" stop-color="#94A3B8" stop-opacity="0"/>
    </radialGradient>
    <radialGradient id="glow" cx="0.5" cy="0.42" r="0.65">
      <stop offset="0%" stop-color="#94A3B8" stop-opacity="0.35"/>
      <stop offset="100%" stop-color="#94A3B8" stop-opacity="0"/>
    </radialGradient>
  </defs>
  <rect width="250" height="350" fill="url(#bg)"/>
  <circle cx="130" cy="130" r="86" fill="url(#moon)" opacity="0.55"/>
  <rect width="250" height="350" fill="url(#glow)"/>
  <g fill="#CBD5E1" opacity="0.5">
    <circle cx="36" cy="52" r="1.6"/><circle cx="214" cy="84" r="1.2"/>
    <circle cx="58" cy="300" r="1.4"/><circle cx="206" cy="268" r="1.6"/>
    <circle cx="30" cy="180" r="1.1"/><circle cx="226" cy="176" r="1.1"/>
  </g>
  <ellipse cx="130" cy="296" rx="72" ry="12" fill="#020617" opacity="0.55"/>
  <g fill="#0B1120">
    <path d="M108 92 L98 60 L126 80 Z"/>
    <path d="M152 92 L162 60 L134 80 Z"/>
    <circle cx="130" cy="106" r="27"/>
    <path d="M130 126 C98 138 86 178 84 228 C83 262 96 286 130 288 C164 286 177 262 176 228 C174 178 162 138 130 126 Z"/>
    <path d="M172 274 C208 266 218 232 206 202 C201 189 190 183 181 188" fill="none" stroke="#0B1120" stroke-width="14" stroke-linecap="round"/>
  </g>
  <path d="M130 126 C98 138 86 178 84 228" fill="none" stroke="#CBD5E1" stroke-opacity="0.30" stroke-width="2"/>
  <ellipse cx="120" cy="104" rx="5" ry="3" fill="#E2E8F0"/>
  <ellipse cx="140" cy="104" rx="5" ry="3" fill="#E2E8F0"/>
</svg>
