<svg xmlns="http://www.w3.org/2000/svg" viewBox="0 0 250 350" width="250" height="350">
  <defs>
    <linearGradient id="bg" x1="0" y1="0" x2="0" y2="1">
      <stop offset="0%" stop-color="#2E1065"/>
      <stop offset="55%" stop-color="#1E0B45"/>
      <stop offset="100%" stop-color="#0D0524"/>
    </linearGradient>
    <radialGradient id="neb1" cx="0.32" cy="0.30" r="0.45">
      <stop offset="0%" stop-color="#C026D3" stop-opacity="0.45"/>
      <stop offset="100%" stop-color="#C026D3" stop-opacity="0"/>
    </radialGradient>
    <radialGradient id="neb2" cx="0.72" cy="0.52" r="0.5">
      <stop offset="0%" stop-color="#7C3AED" stop-opacity="0.40"/>
      <stop offset="100%" stop-color="#7C3AED" stop-opacity="0"/>
    </radialGradient>
  </defs>
  <rect width="250" height="350" fill="url(#bg)"/>
  <rect width="250" height="350" fill="url(#neb1)"/>
  <rect width="250" height="350" fill="url(#neb2)"/>
  <g fill="#F3E8FF">
    <path d="M46 60 L48.5 68 L56 70 L48.5 72.5 L46 80 L43.5 72.5 L36 70 L43.5 68 Z" opacity="0.9"/>
    <path d="M206 108 L208 114 L214 116 L208 118 L206 124 L204 118 L198 116 L204 114 Z" opacity="0.7"/>
    <path d="M60 292 L61.6 297 L66 298.5 L61.6 300 L60 305 L58.4 300 L54 298.5 L58.4 297 Z" opacity="0.7"/>
    <circle cx="212" cy="272" r="1.6" opacity="0.8"/>
    <circle cx="34" cy="160" r="1.3" opacity="0.6"/>
    <circle cx="224" cy="196" r="1.2" opacity="0.6"/>
    <circle cx="186" cy="46" r="1.4" opacity="0.7"/>
  </g>
  <ellipse cx="130" cy="296" rx="72" ry="12" fill="#050214" opacity="0.6"/>
  <g fill="#12061F">
    <path d="M108 92 L98 60 L126 80 Z"/>
    <path d="M152 92 L162 60 L134 80 Z"/>
    <circle cx="130" cy="106" r="27"/>
    <path d="M130 126 C98 138 86 178 84 228 C83 262 96 286 130 288 C164 286 177 262 176 228 C174 178 162 138 130 126 Z"/>
    <path d="M172 274 C208 266 218 232 206 202 C201 189 190 183 181 188" fill="none" stroke="#12061F" stroke-width="14" stroke-linecap="round"/>
  </g>
  <path d="M130 126 C98 138 86 178 84 228" fill="none" stroke="#E9D5FF" stroke-opacity="0.40" stroke-width="2"/>
  <path d="M172 274 C208 266 218 232 206 202" fill="none" stroke="#C084FC" stroke-opacity="0.40" stroke-width="2"/>
  <ellipse cx="120" cy="104" rx="5" ry="3" fill="#E9D5FF"/>
  <ellipse cx="140" cy="104" rx="5" ry="3" fill="#E9D5FF"/>
</svg>
