<svg xmlns="http://www.w3.org/2000/svg" viewBox="0 0 250 350" width="250" height="350">
  <defs>
    <radialGradient id="bg" cx="0.5" cy="0.38" r="0.9">
      <stop offset="0%" stop-color="#3B2506"/>
      <stop offset="55%" stop-color="#1C1002"/>
      <stop offset="100%" stop-color="#0A0501"/>
    </radialGradient>
    <radialGradient id="halo" cx="0.5" cy="0.34" r="0.5">
      <stop offset="0%" stop-color="#FCD34D" stop-opacity="0.55"/>
      <stop offset="60%" stop-color="#F59E0B" stop-opacity="0.20"/>
      <stop offset="100%" stop-color="#F59E0B" stop-opacity="0"/>
    </radialGradient>
    <linearGradient id="crown" x1="0" y1="0" x2="0" y2="1">
      <stop offset="0%" stop-color="#FEF9C3"/>
      <stop offset="50%" stop-color="#FCD34D"/>
      <stop offset="100%" stop-color="#D97706"/>
    </linearGradient>
  </defs>
  <rect width="250" height="350" fill="url(#bg)"/>
  <g opacity="0.16" fill="#FCD34D">
    <path d="M130 120 L136 8 L124 8 Z"/>
    <path d="M130 120 L226 40 L216 30 Z"/>
    <path d="M130 120 L34 40 L44 30 Z"/>
    <path d="M130 120 L244 130 L244 116 Z"/>
    <path d="M130 120 L16 130 L16 116 Z"/>
    <path d="M130 120 L226 220 L234 208 Z"/>
    <path d="M130 120 L34 220 L26 208 Z"/>
  </g>
  <rect width="250" height="350" fill="url(#halo)"/>
  <g fill="#FEF08A">
    <path d="M42 82 L44.4 90 L52 92.4 L44.4 94.8 L42 102 L39.6 94.8 L32 92.4 L39.6 90 Z" opacity="0.9"/>
    <path d="M212 150 L214 156 L220 158 L214 160 L212 166 L210 160 L204 158 L210 156 Z" opacity="0.8"/>
    <path d="M56 268 L57.6 273 L62 274.5 L57.6 276 L56 281 L54.4 276 L50 274.5 L54.4 273 Z" opacity="0.7"/>
    <circle cx="204" cy="284" r="1.7" opacity="0.8"/>
    <circle cx="30" cy="190" r="1.3" opacity="0.7"/>
    <circle cx="222" cy="64" r="1.4" opacity="0.7"/>
  </g>
  <g fill="url(#crown)" stroke="#92400E" stroke-width="1.5" stroke-linejoin="round">
    <path d="M104 52 L100 24 L118 40 L130 18 L142 40 L160 24 L156 52 Z"/>
  </g>
  <circle cx="100" cy="22" r="3.4" fill="#EF4444"/>
  <circle cx="130" cy="16" r="3.8" fill="#FEF9C3"/>
  <circle cx="160" cy="22" r="3.4" fill="#EF4444"/>
  <ellipse cx="130" cy="298" rx="76" ry="12" fill="#000" opacity="0.6"/>
  <g fill="#170D02">
    <path d="M108 98 L98 66 L126 86 Z"/>
    <path d="M152 98 L162 66 L134 86 Z"/>
    <circle cx="130" cy="112" r="27"/>
    <path d="M130 132 C98 144 86 184 84 232 C83 266 96 290 130 292 C164 290 177 266 176 232 C174 184 162 144 130 132 Z"/>
    <path d="M172 278 C208 270 218 236 206 206 C201 193 190 187 181 192" fill="none" stroke="#170D02" stroke-width="14" stroke-linecap="round"/>
  </g>
  <path d="M130 132 C98 144 86 184 84 232" fill="none" stroke="#FCD34D" stroke-opacity="0.55" stroke-width="2.2"/>
  <path d="M172 278 C208 270 218 236 206 206" fill="none" stroke="#F59E0B" stroke-opacity="0.5" stroke-width="2.2"/>
  <ellipse cx="120" cy="110" rx="5.5" ry="3.2" fill="#FCD34D"/>
  <ellipse cx="140" cy="110" rx="5.5" ry="3.2" fill="#FCD34D"/>
</svg>
